# xmcd
#
# Track frame offsets:
#	150
#	10422
#	21560
#	32718
#	47107
#	57065
#	68744
#	79073
#	93096
#	104569
#	115228
#	129399
#	141028
#	154621
#	165961
#	177149
#	191152
#	202384
#	216277
#	230161
#	240878
#	253105
#	262997
#	275900
#	287438
#	298383
#	310567
#	323375
#	336887
#
# Disc length: 4696 seconds
#
# Revision: 0
# Processed by: cddbd v1.5.2PL0 Copyright (c) Steve Scherf et al.
# Submitted via: audiograbber 1.83.01
#
DISCID=a712561d
DTITLE=Ike Turner - Early Times
DYEAR=2006
DGENRE=
TTITLE0=Cubano Jump (AKA Hey Miss Tina)
TTITLE1=Peg Leg Baby
TTITLE2=Early Times
TTITLE3=Gypsy Blues
TTITLE4=If Lovin' Is Believing
TTITLE5=Nobody Wants Me
TTITLE6=Love Is Scarce
TTITLE7=Jesse Knight - Nothing But Money
TTITLE8=Wicked Little Baby
TTITLE9=Go To It (AKA Stringing Along)
TTITLE10=I Miss You So
TTITLE11=Troubles And Heartaches
TTITLE12=I'm Lonesome Baby
TTITLE13=I'm Tired Of Beggin'
TTITLE14=Looking For My Baby
TTITLE15=My Four Women
TTITLE16=Loosely (AKA The Wild One)
TTITLE17=The Woodchuck
TTITLE18=Love Is A Gamble
TTITLE19=You're Driving Me Insane
TTITLE20=Everybody's Talking
TTITLE21=Night Howler
TTITLE22=Why Don't You Believe In Me?
TTITLE23=Whole Heap Of Mama
TTITLE24=Peg Leg Baby (AKA Ugly Woman)
TTITLE25=Stay At Home
TTITLE26=The World Is Yours
TTITLE27=Hoo-Doo Say
TTITLE28=Sinner's Dream
EXTD=
EXTT0=
EXTT1=
EXTT2=
EXTT3=
EXTT4=
EXTT5=
EXTT6=
EXTT7=
EXTT8=
EXTT9=
EXTT10=
EXTT11=
EXTT12=
EXTT13=
EXTT14=
EXTT15=
EXTT16=
EXTT17=
EXTT18=
EXTT19=
EXTT20=
EXTT21=
EXTT22=
EXTT23=
EXTT24=
EXTT25=
EXTT26=
EXTT27=
EXTT28=
PLAYORDER=
